<svg width="13" height="13" viewBox="0 0 13 13" fill="none" xmlns="http://www.w3.org/2000/svg">
<path d="M4.33358 5.41541C4.33358 5.27175 4.39065 5.13398 4.49223 5.03239C4.5938 4.93081 4.73158 4.87374 4.87523 4.87374H8.12513C8.26879 4.87374 8.40656 4.93081 8.50814 5.03239C8.60972 5.13398 8.66679 5.27175 8.66679 5.41541C8.66679 5.55907 8.60972 5.69684 8.50814 5.79842C8.40656 5.90001 8.26879 5.95708 8.12513 5.95708H4.87523C4.73158 5.95708 4.5938 5.90001 4.49223 5.79842C4.39065 5.69684 4.33358 5.55907 4.33358 5.41541ZM4.87523 7.04041C4.73158 7.04041 4.5938 7.09748 4.49223 7.19906C4.39065 7.30064 4.33358 7.43842 4.33358 7.58207C4.33358 7.72573 4.39065 7.86351 4.49223 7.96509C4.5938 8.06667 4.73158 8.12374 4.87523 8.12374H7.04183C7.18549 8.12374 7.32326 8.06667 7.42484 7.96509C7.52642 7.86351 7.58348 7.72573 7.58348 7.58207C7.58348 7.43842 7.52642 7.30064 7.42484 7.19906C7.32326 7.09748 7.18549 7.04041 7.04183 7.04041H4.87523ZM0.000374027 6.49874C0.000650439 5.06771 0.473154 3.67677 1.34459 2.54168C2.21602 1.4066 3.43767 0.590829 4.82003 0.220917C6.20238 -0.148995 7.66817 -0.0523694 8.99001 0.495804C10.3118 1.04398 11.4158 2.01306 12.1307 3.25271C12.8456 4.49236 13.1315 5.9333 12.9439 7.35198C12.7563 8.77067 12.1059 10.0878 11.0934 11.0991C10.0809 12.1103 8.76296 12.7592 7.34408 12.945C5.9252 13.1308 4.48467 12.8431 3.24594 12.1267L0.713186 12.9717C0.619613 13.0029 0.519285 13.008 0.423029 12.9864C0.326773 12.9648 0.238245 12.9173 0.166999 12.8491C0.0957537 12.7808 0.0444963 12.6944 0.0187589 12.5992C-0.0069786 12.5039 -0.00621862 12.4035 0.0209568 12.3087L0.792267 9.61007C0.272305 8.65549 3.51205e-05 7.58575 0.000374027 6.49874ZM6.50018 1.08208C5.54382 1.08202 4.6045 1.33518 3.77769 1.81583C2.95088 2.29647 2.26607 2.98747 1.79286 3.81858C1.31965 4.64968 1.07493 5.59127 1.08356 6.54761C1.09218 7.50396 1.35386 8.44097 1.84199 9.26341C1.87954 9.32694 1.90372 9.39747 1.91303 9.47069C1.92235 9.5439 1.9166 9.61824 1.89615 9.68915L1.34475 11.6175L3.14087 11.0195C3.21714 10.994 3.29814 10.9859 3.37796 10.9956C3.45778 11.0054 3.53443 11.0328 3.60235 11.0758C4.31221 11.5251 5.11682 11.803 5.9526 11.8878C6.78839 11.9725 7.63242 11.8617 8.41799 11.564C9.20356 11.2664 9.90913 10.7901 10.4789 10.1728C11.0487 9.55551 11.4672 8.81414 11.7011 8.00728C11.9351 7.20043 11.9782 6.35022 11.827 5.52385C11.6758 4.69748 11.3344 3.9176 10.83 3.24587C10.3255 2.57413 9.67167 2.02895 8.92021 1.65341C8.16875 1.27787 7.34025 1.08228 6.50018 1.08208Z" fill="#362D2E"/>
</svg>
