<svg width="9" height="12" viewBox="0 0 9 12" fill="none" xmlns="http://www.w3.org/2000/svg">
<path d="M1.25187 4.3938L1.25071 4.395L1.24838 4.3968L1.24258 4.4016C1.21737 4.42136 1.19296 4.44218 1.16941 4.464C1.10861 4.51964 1.0501 4.57789 0.994027 4.6386C0.854654 4.7904 0.675791 5.016 0.507962 5.3178C0.169981 5.9268 -0.113993 6.8346 0.0457058 8.0484C0.203082 9.2466 0.690309 10.248 1.51378 10.9464C2.33492 11.6424 3.44642 12 4.7908 12C6.17699 12 7.28385 11.463 8.01614 10.542C8.74204 9.6294 9.06609 8.3844 8.98885 7.0236C8.91452 5.718 8.22636 4.7274 7.61834 3.8526L7.44471 3.6024C6.78152 2.6352 6.25829 1.7442 6.38547 0.4974C6.3919 0.434649 6.38549 0.371202 6.36665 0.311178C6.3478 0.251153 6.31696 0.195894 6.2761 0.148988C6.23525 0.102082 6.1853 0.0645777 6.12951 0.0389101C6.07372 0.0132425 6.01332 -1.44826e-05 5.95225 1.18727e-08C5.73041 1.18727e-08 5.47605 0.0708 5.23099 0.1776C4.94721 0.303306 4.67943 0.46451 4.43365 0.6576C3.89648 1.0764 3.35932 1.7076 3.07302 2.5512C2.7873 3.3924 2.93248 4.194 3.14154 4.7778C3.27918 5.1612 3.12993 5.5398 2.90519 5.6502C2.80957 5.69694 2.70016 5.70368 2.59983 5.66902C2.49951 5.63436 2.41603 5.56097 2.36686 5.4642L1.8988 4.5456C1.8695 4.48797 1.82845 4.4376 1.77849 4.39795C1.72852 4.3583 1.67083 4.33033 1.60938 4.31595C1.54793 4.30158 1.4842 4.30115 1.42258 4.31469C1.36096 4.32824 1.30291 4.35543 1.25245 4.3944" fill="#BBD911"/>
</svg>
