<svg width="13" height="14" viewBox="0 0 13 14" fill="none" xmlns="http://www.w3.org/2000/svg">
<path d="M3.85983 6.33054C4.00277 6.30344 4.1285 6.22361 4.20936 6.1086C4.29023 5.99359 4.31962 5.85282 4.29105 5.71726C4.26248 5.5817 4.1783 5.46246 4.05704 5.38576C3.93577 5.30907 3.78734 5.2812 3.64441 5.30829C2.98275 5.43338 2.48302 5.87258 2.21704 6.46118C1.95325 7.04354 1.91442 7.77183 2.12032 8.55154C2.13639 8.61931 2.16659 8.68334 2.20914 8.73988C2.25168 8.79642 2.30571 8.84432 2.36806 8.88078C2.4304 8.91723 2.4998 8.9415 2.57217 8.95215C2.64454 8.9628 2.71843 8.95963 2.78949 8.94282C2.86055 8.926 2.92735 8.89589 2.98596 8.85424C3.04458 8.81259 3.09382 8.76025 3.13081 8.7003C3.16779 8.64035 3.19176 8.57399 3.20132 8.50512C3.21087 8.43625 3.20582 8.36627 3.18645 8.29928C3.02525 7.68913 3.078 7.20129 3.22675 6.87189C3.3733 6.54805 3.60631 6.37918 3.85983 6.33054ZM1.71585 0.898947C1.68453 1.39233 1.76069 1.88655 1.93958 2.3508C2.11846 2.81505 2.39624 3.23939 2.7556 3.59737C2.05756 3.78718 1.43262 4.16504 0.956576 4.68511C0.480537 5.20517 0.17387 5.84508 0.0737824 6.5272C-0.167398 8.16391 0.186676 9.82971 1.07763 11.25L1.33409 11.66L1.3656 11.7038L2.40315 13.0283C2.62291 13.309 2.90455 13.5409 3.22845 13.7079C3.55235 13.8749 3.91074 13.9729 4.27865 13.9951C4.64657 14.0174 5.01517 13.9633 5.35879 13.8366C5.70241 13.71 6.0128 13.5138 6.26834 13.2618C6.29822 13.2323 6.33406 13.2089 6.37372 13.1929C6.41338 13.1769 6.45604 13.1686 6.49915 13.1686C6.54226 13.1686 6.58492 13.1769 6.62458 13.1929C6.66424 13.2089 6.70009 13.2323 6.72996 13.2618C6.9855 13.5138 7.29589 13.71 7.63951 13.8366C7.98314 13.9633 8.35174 14.0174 8.71965 13.9951C9.08756 13.9729 9.44595 13.8749 9.76985 13.7079C10.0938 13.5409 10.3754 13.309 10.5951 13.0283L11.6327 11.7031L11.6635 11.6593L11.9207 11.2493C12.8122 9.82946 13.1671 8.16392 12.9267 6.5272C12.8558 6.04493 12.6812 5.5816 12.4138 5.1659C12.1464 4.7502 11.7919 4.39097 11.3723 4.11046C10.9526 3.82995 10.4766 3.63413 9.97394 3.53511C9.47123 3.4361 8.95245 3.436 8.4497 3.53483L7.05676 3.80863H7.05457C7.07655 3.26658 7.16594 2.68284 7.34107 2.18388C7.55356 1.58068 7.84812 1.21792 8.17639 1.08866C8.31096 1.0354 8.41772 0.933613 8.47316 0.805699C8.52861 0.677785 8.52821 0.53422 8.47204 0.406587C8.41588 0.278955 8.30856 0.177709 8.17369 0.125122C8.03881 0.0725362 7.88744 0.0729173 7.75286 0.126182C6.98202 0.431257 6.54385 1.15468 6.29838 1.85378L6.26468 1.95246C6.08443 1.62167 5.85135 1.31927 5.5737 1.056C5.19372 0.695152 4.73723 0.414995 4.23446 0.23409C3.7317 0.0531845 3.19415 -0.0243392 2.65741 0.00665391C2.41247 0.0200254 2.18122 0.118195 2.00752 0.282541C1.83383 0.446886 1.72978 0.665977 1.71511 0.898252M2.80909 1.0421C3.17678 1.03204 3.54276 1.09343 3.8845 1.2225C4.22625 1.35157 4.53653 1.54559 4.79627 1.79263C5.05675 2.03897 5.26132 2.33324 5.39741 2.65736C5.53351 2.98147 5.59824 3.32856 5.58763 3.67729C5.45474 3.68006 5.32181 3.67425 5.18975 3.65991L4.73765 3.57096C4.30825 3.44871 3.91752 3.22737 3.60044 2.92676C3.33997 2.68042 3.13539 2.38615 2.9993 2.06203C2.86321 1.73792 2.79848 1.39083 2.80909 1.0421ZM4.32585 4.55499L4.47387 4.58417C4.64972 4.63143 4.82802 4.66664 5.00876 4.6898L5.71952 4.82879C6.2343 4.92993 6.76547 4.92993 7.28025 4.82879L8.67391 4.55499C9.0294 4.48511 9.39623 4.48519 9.75169 4.55521C10.1071 4.62524 10.4437 4.76373 10.7404 4.96209C11.0371 5.16046 11.2878 5.41449 11.4768 5.70845C11.6658 6.00241 11.7892 6.33004 11.8393 6.67105C12.0451 8.07323 11.7409 9.50005 10.9769 10.7163L10.7344 11.1033L9.71367 12.407C9.5891 12.5662 9.42945 12.6976 9.24584 12.7923C9.06223 12.8869 8.85907 12.9425 8.65052 12.955C8.44196 12.9676 8.23303 12.9369 8.03826 12.865C7.8435 12.7932 7.66759 12.682 7.52278 12.5391C7.39041 12.4084 7.23157 12.3045 7.0558 12.2334C6.88003 12.1624 6.69094 12.1258 6.49988 12.1258C6.30883 12.1258 6.11974 12.1624 5.94397 12.2334C5.7682 12.3045 5.60936 12.4084 5.47698 12.5391C5.33218 12.682 5.15627 12.7932 4.96151 12.865C4.76674 12.9369 4.5578 12.9676 4.34925 12.955C4.14069 12.9425 3.93753 12.8869 3.75392 12.7923C3.57031 12.6976 3.41066 12.5662 3.2861 12.407L2.2654 11.1033L2.02286 10.7163C1.25912 9.49996 0.955184 8.07315 1.16116 6.67105C1.21128 6.33011 1.33465 6.00255 1.52364 5.70864C1.71262 5.41474 1.96319 5.16075 2.25985 4.96239C2.5565 4.76403 2.89292 4.62553 3.24829 4.55545C3.60366 4.48538 3.97042 4.48522 4.32585 4.55499Z" fill="#362D2E"/>
</svg>
