<svg width="10" height="15" viewBox="0 0 10 15" fill="none" xmlns="http://www.w3.org/2000/svg">
<path d="M5 0C4.25408 0 3.53871 0.296316 3.01126 0.823762C2.48382 1.35121 2.1875 2.06658 2.1875 2.8125V7.8125C2.1875 8.18184 2.26025 8.54757 2.40159 8.8888C2.54293 9.23003 2.7501 9.54007 3.01126 9.80124C3.27243 10.0624 3.58247 10.2696 3.9237 10.4109C4.26493 10.5523 4.63066 10.625 5 10.625C5.36934 10.625 5.73507 10.5523 6.0763 10.4109C6.41753 10.2696 6.72757 10.0624 6.98874 9.80124C7.2499 9.54007 7.45707 9.23003 7.59841 8.8888C7.73975 8.54757 7.8125 8.18184 7.8125 7.8125V2.8125C7.8125 2.06658 7.51618 1.35121 6.98874 0.823762C6.46129 0.296316 5.74592 0 5 0ZM3.125 2.8125C3.125 2.56627 3.1735 2.32245 3.26773 2.09497C3.36195 1.86748 3.50006 1.66078 3.67417 1.48667C3.84828 1.31256 4.05498 1.17445 4.28247 1.08023C4.50995 0.985998 4.75377 0.9375 5 0.9375C5.24623 0.9375 5.49005 0.985998 5.71753 1.08023C5.94502 1.17445 6.15172 1.31256 6.32583 1.48667C6.49994 1.66078 6.63805 1.86748 6.73227 2.09497C6.8265 2.32245 6.875 2.56627 6.875 2.8125V7.8125C6.875 8.05873 6.8265 8.30255 6.73227 8.53003C6.63805 8.75752 6.49994 8.96422 6.32583 9.13833C6.15172 9.31244 5.94502 9.45055 5.71753 9.54477C5.49005 9.639 5.24623 9.6875 5 9.6875C4.75377 9.6875 4.50995 9.639 4.28247 9.54477C4.05498 9.45055 3.84828 9.31244 3.67417 9.13833C3.50006 8.96422 3.36195 8.75752 3.26773 8.53003C3.1735 8.30255 3.125 8.05873 3.125 7.8125V2.8125ZM0.9375 7.34375C0.9375 7.21943 0.888114 7.1002 0.800206 7.01229C0.712299 6.92439 0.59307 6.875 0.46875 6.875C0.34443 6.875 0.225201 6.92439 0.137294 7.01229C0.049386 7.1002 2.13839e-09 7.21943 2.13839e-09 7.34375V7.8125C-3.63878e-05 9.05746 0.464376 10.2576 1.3024 11.1783C2.14043 12.099 3.29178 12.6739 4.53125 12.7906V14.5312C4.53125 14.6556 4.58064 14.7748 4.66854 14.8627C4.75645 14.9506 4.87568 15 5 15C5.12432 15 5.24355 14.9506 5.33146 14.8627C5.41936 14.7748 5.46875 14.6556 5.46875 14.5312V12.7906C6.70822 12.6739 7.85957 12.099 8.6976 11.1783C9.53562 10.2576 10 9.05746 10 7.8125V7.34375C10 7.21943 9.95061 7.1002 9.86271 7.01229C9.7748 6.92439 9.65557 6.875 9.53125 6.875C9.40693 6.875 9.2877 6.92439 9.19979 7.01229C9.11189 7.1002 9.0625 7.21943 9.0625 7.34375V7.8125C9.0625 8.88994 8.63449 9.92325 7.87262 10.6851C7.11075 11.447 6.07744 11.875 5 11.875C3.92256 11.875 2.88925 11.447 2.12738 10.6851C1.36551 9.92325 0.9375 8.88994 0.9375 7.8125V7.34375Z" fill="#362D2E"/>
</svg>
