<svg width="10" height="12" viewBox="0 0 10 12" fill="none" xmlns="http://www.w3.org/2000/svg">
<path d="M2.25972 0.425942C2.30934 0.300343 2.39691 0.192381 2.51084 0.116328C2.62477 0.0402745 2.75969 -0.000288271 2.89778 1.54221e-06H7.26575C7.74122 1.54221e-06 8.07103 0.460937 7.90792 0.895877L6.83388 3.74948H9.31484C9.91906 3.74948 10.2263 4.45738 9.8057 4.88032L2.96651 11.7499C2.38179 12.3373 1.3734 11.8084 1.55446 11.009L2.4059 7.24899H0.983073C0.823289 7.24896 0.66592 7.21098 0.524586 7.13833C0.383252 7.06568 0.262212 6.96055 0.171943 6.83205C0.0816742 6.70354 0.0248957 6.55553 0.00652236 6.40083C-0.011851 6.24612 0.00873435 6.08938 0.0664966 5.94417L2.25972 0.425942Z" fill="#BFDB1E"/>
</svg>
