<svg width="14" height="14" viewBox="0 0 14 14" fill="none" xmlns="http://www.w3.org/2000/svg">
<path d="M7 12.4998C6.65379 12.5033 6.31545 12.4544 6.03259 12.197C5.74973 11.9396 5.53659 11.8087 5.42318 11.387C5.40926 11.336 5.38711 11.3201 5.35819 11.2809C5.32927 11.2418 5.29424 11.2313 5.25541 11.211C5.21694 11.1897 5.17536 11.1861 5.13352 11.1875C5.09167 11.1888 5.05054 11.1932 5.01293 11.2169C4.70078 11.408 4.35042 11.4301 4.00993 11.3542C3.66943 11.2784 3.35549 11.2033 3.11118 10.8883C2.86688 10.5733 2.70417 10.4285 2.6454 9.98949C2.58662 9.55053 2.63466 9.38895 2.78291 8.98658C2.80116 8.93768 2.81122 8.91948 2.81243 8.86523C2.81363 8.81099 2.80597 8.79256 2.78993 8.74239C2.77388 8.69222 2.74982 8.67676 2.71932 8.63938C2.68881 8.60199 2.65253 8.59219 2.61285 8.57407C2.28726 8.42482 2.00549 8.32624 1.80623 7.96228C1.60697 7.59831 1.5 7.44283 1.5 6.99735C1.5 6.55187 1.60697 6.39639 1.80623 6.03242C2.00549 5.66846 2.28726 5.56988 2.61285 5.42063C2.65245 5.40237 2.68863 5.39255 2.71905 5.35512C2.74946 5.31769 2.77344 5.30224 2.78943 5.2521C2.80542 5.20196 2.81306 5.18355 2.81186 5.12937C2.81066 5.07518 2.80064 5.05699 2.78246 5.00812C2.63583 4.60593 2.5891 4.44473 2.64864 4.00702C2.70818 3.56931 2.8711 3.42506 3.11513 3.11119C3.35915 2.79731 3.6724 2.72253 4.01207 2.64676C4.35174 2.57099 4.70128 2.5929 5.01293 2.78283C5.05086 2.80636 5.09221 2.81078 5.13429 2.81234C5.17636 2.8139 5.21822 2.81052 5.25714 2.78984C5.29606 2.76916 5.33116 2.75857 5.36016 2.71924C5.38916 2.67991 5.41142 2.66393 5.42547 2.61278C5.54124 2.19305 5.75497 2.06308 6.0373 1.80621C6.31963 1.54934 6.65673 1.5 7.00229 1.5C7.34786 1.5 7.68495 1.54934 7.96728 1.80621C8.24961 2.06308 8.46334 2.19305 8.57912 2.61278C8.59317 2.66393 8.61542 2.67991 8.64442 2.71924C8.67342 2.75857 8.70853 2.76916 8.74745 2.78984C8.78636 2.81052 8.82822 2.8139 8.8703 2.81234C8.91237 2.81078 8.95372 2.80636 8.99166 2.78283C9.30359 2.59393 9.65315 2.57241 9.99261 2.64917C10.3321 2.72593 10.6449 2.80101 10.8883 3.11549C11.1318 3.42997 11.294 3.57433 11.3528 4.01209C11.4117 4.44985 11.3643 4.61096 11.2171 5.0127C11.1987 5.06157 11.1885 5.07979 11.1872 5.13409C11.186 5.18838 11.1936 5.20685 11.2097 5.25707C11.2257 5.30729 11.2498 5.32276 11.2804 5.36012C11.311 5.39748 11.3474 5.40725 11.3871 5.42521C11.7127 5.57446 11.9945 5.67304 12.1938 6.03701C12.393 6.40097 12.5 6.55645 12.5 7.00193C12.5 7.44742 12.393 7.60289 12.1938 7.96686C11.9945 8.33083 11.7127 8.4294 11.3871 8.57865C11.3474 8.59661 11.311 8.60639 11.2804 8.64375C11.2498 8.68111 11.2257 8.69658 11.2097 8.7468C11.1936 8.79702 11.186 8.81548 11.1872 8.86978C11.1885 8.92407 11.1987 8.9423 11.2171 8.99117C11.3636 9.3933 11.4103 9.55445 11.3508 9.99205C11.2912 10.4297 11.1284 10.5739 10.8844 10.8877C10.6405 11.2015 10.3273 11.2763 9.98774 11.3522C9.64817 11.428 9.29871 11.4062 8.98707 11.2165C8.94928 11.1935 8.90821 11.1893 8.86646 11.1879C8.82471 11.1866 8.78321 11.19 8.74459 11.2105C8.70576 11.2309 8.67073 11.2414 8.64181 11.2805C8.61289 11.3196 8.59074 11.3355 8.57682 11.3865C8.46343 11.8083 8.25031 11.9392 7.96746 12.1967C7.6846 12.4542 7.34625 12.5032 7 12.4998Z" fill="#C9E045" stroke="#C9E045" stroke-linejoin="round"/>
<path d="M10.403 8.02259C10.3921 8.00389 10.3807 7.98542 10.3697 7.96705L10.3688 7.96534C10.3664 7.96139 10.3643 7.95754 10.3618 7.95391L10.3587 7.94868C9.79975 7.02837 9.18951 6.02273 8.43688 4.78387C8.41474 4.74746 8.39179 4.70901 8.37342 4.67803C8.31903 4.58746 8.26312 4.49357 8.2035 4.40354C8.15521 4.32376 8.0796 4.26344 7.99054 4.23398C7.95547 4.22322 7.9187 4.21801 7.88208 4.2182L7.86612 4.2183L7.85278 4.21813C7.68878 4.20994 7.52449 4.22628 7.36581 4.26683C7.2247 4.31028 7.07484 4.35746 6.92781 4.4155C6.81861 4.45875 6.71392 4.50622 6.60318 4.55684L6.60275 4.55707C6.55592 4.57875 6.50767 4.60035 6.45941 4.62196L6.45495 4.6188C6.45329 4.61829 6.45194 4.61681 6.45059 4.61532L6.44567 4.60775L6.44534 4.60764C6.43353 4.58832 6.42073 4.56868 6.40849 4.54958C6.36574 4.48007 6.31843 4.39239 6.26835 4.29957C6.10895 4.00261 5.91022 3.63326 5.67347 3.52707C5.66196 3.52212 5.65068 3.51759 5.63877 3.51393C5.58904 3.49903 5.53637 3.49608 5.48547 3.50509C5.43303 3.51435 5.38293 3.53253 5.33701 3.55949C5.26096 3.60326 5.18764 3.65465 5.11678 3.70394C5.08537 3.72607 5.05268 3.74888 5.01952 3.77083C4.9536 3.81343 4.89917 3.87168 4.86153 3.94009C4.82558 4.01008 4.80581 4.08753 4.80377 4.16615C4.78817 4.50258 4.77833 5.18487 4.78873 5.50144C4.79532 5.80328 4.81721 6.10481 4.8548 6.40474C4.7949 6.46311 4.73309 6.52302 4.6784 6.57621C4.5387 6.71181 4.40677 6.83981 4.2739 6.97323C4.13834 7.11188 4.0224 7.26799 3.92924 7.43715C3.87493 7.53042 3.83559 7.6315 3.81267 7.7369C3.79011 7.84348 3.79182 7.95358 3.81713 8.05986C3.84936 8.1861 3.9063 8.30493 3.98459 8.40962C4.1644 8.65538 4.39085 8.86476 4.65048 9.02615C4.85237 9.15626 5.06254 9.27356 5.27966 9.37765C5.49467 9.48037 5.71709 9.56717 5.94495 9.63742C6.14313 9.69822 6.34541 9.74565 6.55004 9.77951C6.68649 9.80317 6.82534 9.81078 6.96328 9.80242C7.101 9.79363 7.23635 9.76305 7.36367 9.71145C7.40205 9.6961 7.44119 9.68062 7.47578 9.66697C7.58272 9.62517 7.69343 9.58169 7.79725 9.53001C7.95184 9.45323 8.10651 9.37147 8.25634 9.29251L8.25667 9.29261C8.39229 9.22107 8.5322 9.14728 8.67135 9.07718C8.86397 8.98029 9.06076 8.88397 9.25118 8.7907L9.25184 8.7909C9.43858 8.69899 9.63149 8.6047 9.82109 8.50938C9.99581 8.42128 10.1691 8.32381 10.337 8.22936L10.3562 8.21882C10.3919 8.20265 10.4183 8.17219 10.429 8.1348C10.4346 8.09545 10.425 8.05576 10.4021 8.02304L10.403 8.02259ZM8.18003 7.25318C8.16866 7.25719 8.15677 7.26175 8.14573 7.26586L8.14411 7.26643C8.11502 7.27749 8.08483 7.28857 8.05448 7.29782C7.91831 7.33814 7.77618 7.3802 7.65051 7.41696C7.41297 7.48686 7.16664 7.55942 6.92557 7.63252C6.91994 7.63436 6.91441 7.63587 6.90888 7.63739C6.73693 7.68814 6.55989 7.72128 6.38057 7.73587C6.20102 7.75003 6.02069 7.74789 5.84141 7.7293C5.78802 7.72398 5.73504 7.7138 5.68343 7.69796C5.60601 7.67421 5.53302 7.63719 5.46897 7.58756C5.4184 7.55063 5.37958 7.50017 5.35683 7.44215C5.33746 7.38731 5.33687 7.32788 5.35487 7.27272C5.36238 7.24826 5.37253 7.2246 5.3848 7.20231L5.38719 7.19805C5.41109 7.15434 5.43956 7.11346 5.47206 7.07596C5.5513 6.98641 5.63271 6.89681 5.71181 6.81007C5.73133 6.78893 5.75051 6.76769 5.7697 6.74645C5.78825 6.72609 5.80648 6.70562 5.82493 6.68559C5.8331 6.67667 5.84047 6.66679 5.84804 6.65627L5.84824 6.65562C5.85226 6.65078 5.85638 6.64562 5.86049 6.64046C5.85269 6.62343 5.84488 6.6064 5.83799 6.59108C5.82192 6.55617 5.80538 6.5204 5.78993 6.48461C5.77402 6.44796 5.75775 6.41013 5.74198 6.37424L5.73895 6.3676C5.68622 6.24684 5.63184 6.12201 5.58217 5.99719C5.5563 5.9293 5.53845 5.85886 5.52888 5.78739C5.52273 5.75196 5.52434 5.71604 5.53385 5.68148C5.54917 5.63157 5.59229 5.59483 5.64432 5.58688C5.66672 5.58233 5.6895 5.58004 5.71237 5.58099C5.79935 5.58304 5.88543 5.59624 5.9692 5.62052C5.98386 5.62466 5.99809 5.62902 6.01165 5.63318C6.22098 5.70132 6.42506 5.78535 6.6216 5.88455C6.85813 5.99852 7.08439 6.13182 7.29858 6.28319C7.51202 6.43469 7.71207 6.60385 7.89672 6.78899C7.97504 6.86763 8.04831 6.95328 8.11911 7.03639L8.11944 7.0365L8.18346 7.11217C8.19934 7.13239 8.21148 7.15539 8.2184 7.18C8.22245 7.19159 8.22325 7.20433 8.21998 7.21618C8.21338 7.23414 8.19868 7.24783 8.18013 7.25285L8.18003 7.25318Z" fill="#362D2E"/>
</svg>
