<svg width="24" height="24" viewBox="0 0 24 24" fill="none" xmlns="http://www.w3.org/2000/svg">
<rect width="24" height="24" rx="8" fill="#F2ECEA"/>
<path d="M9.83358 10.6654C9.83358 10.5218 9.89065 10.384 9.99223 10.2824C10.0938 10.1808 10.2316 10.1237 10.3752 10.1237H13.6251C13.7688 10.1237 13.9066 10.1808 14.0081 10.2824C14.1097 10.384 14.1668 10.5218 14.1668 10.6654C14.1668 10.8091 14.1097 10.9468 14.0081 11.0484C13.9066 11.15 13.7688 11.2071 13.6251 11.2071H10.3752C10.2316 11.2071 10.0938 11.15 9.99223 11.0484C9.89065 10.9468 9.83358 10.8091 9.83358 10.6654ZM10.3752 12.2904C10.2316 12.2904 10.0938 12.3475 9.99223 12.4491C9.89065 12.5506 9.83358 12.6884 9.83358 12.8321C9.83358 12.9757 9.89065 13.1135 9.99223 13.2151C10.0938 13.3167 10.2316 13.3737 10.3752 13.3737H12.5418C12.6855 13.3737 12.8233 13.3167 12.9248 13.2151C13.0264 13.1135 13.0835 12.9757 13.0835 12.8321C13.0835 12.6884 13.0264 12.5506 12.9248 12.4491C12.8233 12.3475 12.6855 12.2904 12.5418 12.2904H10.3752ZM5.50037 11.7487C5.50065 10.3177 5.97315 8.92677 6.84459 7.79168C7.71602 6.6566 8.93767 5.84083 10.32 5.47092C11.7024 5.10101 13.1682 5.19763 14.49 5.7458C15.8118 6.29398 16.9158 7.26306 17.6307 8.50271C18.3456 9.74237 18.6315 11.1833 18.4439 12.602C18.2563 14.0207 17.6059 15.3378 16.5934 16.3491C15.5809 17.3603 14.263 18.0092 12.8441 18.195C11.4252 18.3808 9.98467 18.0931 8.74594 17.3767L6.21319 18.2217C6.11961 18.2529 6.01928 18.258 5.92303 18.2364C5.82677 18.2148 5.73824 18.1673 5.667 18.0991C5.59575 18.0308 5.5445 17.9444 5.51876 17.8492C5.49302 17.7539 5.49378 17.6535 5.52096 17.5587L6.29227 14.8601C5.7723 13.9055 5.50004 12.8358 5.50037 11.7487ZM12.0002 6.33208C11.0438 6.33202 10.1045 6.58518 9.27769 7.06583C8.45088 7.54647 7.76607 8.23747 7.29286 9.06858C6.81965 9.89968 6.57493 10.8413 6.58356 11.7976C6.59218 12.754 6.85386 13.691 7.34199 14.5134C7.37954 14.5769 7.40372 14.6475 7.41303 14.7207C7.42235 14.7939 7.4166 14.8682 7.39615 14.9392L6.84475 16.8675L8.64087 16.2695C8.71715 16.244 8.79814 16.2359 8.87796 16.2456C8.95778 16.2554 9.03443 16.2828 9.10235 16.3258C9.81221 16.7751 10.6168 17.053 11.4526 17.1378C12.2884 17.2225 13.1324 17.1117 13.918 16.814C14.7036 16.5164 15.4091 16.0401 15.9789 15.4228C16.5487 14.8055 16.9672 14.0641 17.2011 13.2573C17.4351 12.4504 17.4782 11.6002 17.327 10.7738C17.1758 9.94748 16.8344 9.1676 16.33 8.49587C15.8255 7.82413 15.1717 7.27895 14.4202 6.90341C13.6688 6.52787 12.8402 6.33228 12.0002 6.33208Z" fill="#B07664"/>
</svg>
