<svg width="24" height="24" viewBox="0 0 24 24" fill="none" xmlns="http://www.w3.org/2000/svg">
<rect width="24" height="24" rx="8" fill="#F2ECEA"/>
<path d="M7.62487 8.82353C7.62487 8.3555 7.8224 7.90664 8.17402 7.57569C8.52563 7.24475 9.00252 7.05882 9.49978 7.05882C9.99703 7.05882 10.4739 7.24475 10.8255 7.57569C11.1771 7.90664 11.3747 8.3555 11.3747 8.82353C11.3747 9.29156 11.1771 9.74042 10.8255 10.0714C10.4739 10.4023 9.99703 10.5882 9.49978 10.5882C9.00252 10.5882 8.52563 10.4023 8.17402 10.0714C7.8224 9.74042 7.62487 9.29156 7.62487 8.82353ZM9.49978 6C8.70417 6 7.94114 6.29748 7.37856 6.82699C6.81598 7.35651 6.49993 8.07468 6.49993 8.82353C6.49993 9.57238 6.81598 10.2906 7.37856 10.8201C7.94114 11.3496 8.70417 11.6471 9.49978 11.6471C10.2954 11.6471 11.0584 11.3496 11.621 10.8201C12.1836 10.2906 12.4996 9.57238 12.4996 8.82353C12.4996 8.07468 12.1836 7.35651 11.621 6.82699C11.0584 6.29748 10.2954 6 9.49978 6ZM15.1245 9.52941C15.1245 9.24859 15.243 8.97928 15.454 8.78071C15.665 8.58214 15.9511 8.47059 16.2494 8.47059C16.5478 8.47059 16.8339 8.58214 17.0449 8.78071C17.2559 8.97928 17.3744 9.24859 17.3744 9.52941C17.3744 9.81023 17.2559 10.0795 17.0449 10.2781C16.8339 10.4767 16.5478 10.5882 16.2494 10.5882C15.9511 10.5882 15.665 10.4767 15.454 10.2781C15.243 10.0795 15.1245 9.81023 15.1245 9.52941ZM16.2494 7.41176C15.6527 7.41176 15.0805 7.63487 14.6585 8.03201C14.2366 8.42915 13.9996 8.96778 13.9996 9.52941C13.9996 10.091 14.2366 10.6297 14.6585 11.0268C15.0805 11.424 15.6527 11.6471 16.2494 11.6471C16.8461 11.6471 17.4184 11.424 17.8403 11.0268C18.2623 10.6297 18.4993 10.091 18.4993 9.52941C18.4993 8.96778 18.2623 8.42915 17.8403 8.03201C17.4184 7.63487 16.8461 7.41176 16.2494 7.41176ZM14.1855 16.6151C14.7128 16.8162 15.3885 16.9412 16.2502 16.9412C17.9616 16.9412 18.9396 16.4492 19.4728 15.8414C19.7315 15.5464 19.8628 15.2485 19.9303 15.0205C19.9689 14.8884 19.9923 14.7528 20 14.616V14.5969C19.9998 14.1891 19.8276 13.7979 19.5211 13.5095C19.2147 13.2211 18.7992 13.059 18.3658 13.0588H14.1345C14.1135 13.0588 14.093 13.0593 14.073 13.0602C14.3685 13.3496 14.583 13.7132 14.685 14.1176H18.3658C18.6448 14.1176 18.8713 14.3287 18.8751 14.5899L18.8728 14.6125C18.8698 14.6398 18.8606 14.6821 18.8451 14.7395C18.7987 14.8965 18.7169 15.0422 18.6051 15.1666C18.3426 15.4673 17.7261 15.8824 16.2502 15.8824C15.5152 15.8824 14.9933 15.7793 14.6228 15.6388C14.5418 15.9212 14.4083 16.2621 14.1855 16.6151ZM6.68742 13.0588C6.23989 13.0588 5.81068 13.2262 5.49423 13.524C5.17778 13.8219 5 14.2258 5 14.6471V14.8433C5.00079 14.8924 5.00429 14.9414 5.0105 14.9901C5.07284 15.5153 5.27338 16.0175 5.59397 16.4513C6.20744 17.2758 7.37888 18 9.49978 18C11.6207 18 12.7921 17.2765 13.4056 16.4506C13.7262 16.0168 13.9267 15.5146 13.9891 14.9894C13.9943 14.9408 13.9978 14.8921 13.9996 14.8433V14.6471C13.9996 14.2258 13.8218 13.8219 13.5053 13.524C13.1889 13.2262 12.7597 13.0588 12.3121 13.0588H6.68742ZM6.12494 14.8285V14.6471C6.12494 14.5067 6.1842 14.372 6.28969 14.2727C6.39517 14.1734 6.53824 14.1176 6.68742 14.1176H12.3121C12.4613 14.1176 12.6044 14.1734 12.7099 14.2727C12.8153 14.372 12.8746 14.5067 12.8746 14.6471V14.8285L12.8694 14.8849C12.8262 15.2294 12.6938 15.5585 12.4839 15.8435C12.1141 16.3412 11.3162 16.9412 9.49978 16.9412C7.68337 16.9412 6.88541 16.3412 6.51492 15.8435C6.30524 15.5585 6.17313 15.2293 6.13019 14.8849L6.12494 14.8285Z" fill="#B07664"/>
</svg>
