<svg width="24" height="24" viewBox="0 0 24 24" fill="none" xmlns="http://www.w3.org/2000/svg">
<rect width="24" height="24" rx="8" fill="#B07664"/>
<path d="M9.60983 11.3305C9.75277 11.3034 9.8785 11.2236 9.95936 11.1086C10.0402 10.9936 10.0696 10.8528 10.041 10.7173C10.0125 10.5817 9.9283 10.4625 9.80704 10.3858C9.68577 10.3091 9.53734 10.2812 9.39441 10.3083C8.73275 10.4334 8.23302 10.8726 7.96704 11.4612C7.70325 12.0435 7.66442 12.7718 7.87032 13.5515C7.88639 13.6193 7.91659 13.6833 7.95914 13.7399C8.00168 13.7964 8.05571 13.8443 8.11806 13.8808C8.1804 13.9172 8.2498 13.9415 8.32217 13.9522C8.39454 13.9628 8.46843 13.9596 8.53949 13.9428C8.61055 13.926 8.67735 13.8959 8.73596 13.8542C8.79458 13.8126 8.84382 13.7603 8.88081 13.7003C8.91779 13.6403 8.94176 13.574 8.95132 13.5051C8.96087 13.4363 8.95582 13.3663 8.93645 13.2993C8.77525 12.6891 8.828 12.2013 8.97675 11.8719C9.1233 11.5481 9.35631 11.3792 9.60983 11.3305ZM7.46585 5.89895C7.43453 6.39233 7.51069 6.88655 7.68958 7.3508C7.86846 7.81505 8.14624 8.23939 8.5056 8.59737C7.80756 8.78718 7.18262 9.16504 6.70658 9.68511C6.23054 10.2052 5.92387 10.8451 5.82378 11.5272C5.5826 13.1639 5.93668 14.8297 6.82763 16.25L7.08409 16.66L7.1156 16.7038L8.15315 18.0283C8.37291 18.309 8.65455 18.5409 8.97845 18.7079C9.30235 18.8749 9.66074 18.9729 10.0287 18.9951C10.3966 19.0174 10.7652 18.9633 11.1088 18.8366C11.4524 18.71 11.7628 18.5138 12.0183 18.2618C12.0482 18.2323 12.0841 18.2089 12.1237 18.1929C12.1634 18.1769 12.206 18.1686 12.2492 18.1686C12.2923 18.1686 12.3349 18.1769 12.3746 18.1929C12.4142 18.2089 12.4501 18.2323 12.48 18.2618C12.7355 18.5138 13.0459 18.71 13.3895 18.8366C13.7331 18.9633 14.1017 19.0174 14.4696 18.9951C14.8376 18.9729 15.1959 18.8749 15.5198 18.7079C15.8438 18.5409 16.1254 18.309 16.3452 18.0283L17.3827 16.7031L17.4135 16.6593L17.6707 16.2493C18.5622 14.8295 18.9171 13.1639 18.6767 11.5272C18.6058 11.0449 18.4312 10.5816 18.1638 10.1659C17.8964 9.7502 17.5419 9.39097 17.1223 9.11046C16.7026 8.82995 16.2266 8.63413 15.7239 8.53511C15.2212 8.4361 14.7024 8.436 14.1997 8.53483L12.8068 8.80863H12.8046C12.8265 8.26658 12.9159 7.68284 13.0911 7.18388C13.3036 6.58068 13.5981 6.21792 13.9264 6.08866C14.061 6.0354 14.1677 5.93361 14.2232 5.8057C14.2786 5.67779 14.2782 5.53422 14.222 5.40659C14.1659 5.27895 14.0586 5.17771 13.9237 5.12512C13.7888 5.07254 13.6374 5.07292 13.5029 5.12618C12.732 5.43126 12.2938 6.15468 12.0484 6.85378L12.0147 6.95246C11.8344 6.62167 11.6014 6.31927 11.3237 6.056C10.9437 5.69515 10.4872 5.41499 9.98446 5.23409C9.4817 5.05318 8.94415 4.97566 8.40741 5.00665C8.16247 5.02003 7.93122 5.11819 7.75752 5.28254C7.58383 5.44689 7.47978 5.66598 7.46511 5.89825M8.55909 6.0421C8.92678 6.03204 9.29276 6.09343 9.6345 6.2225C9.97625 6.35157 10.2865 6.54559 10.5463 6.79263C10.8067 7.03897 11.0113 7.33324 11.1474 7.65736C11.2835 7.98147 11.3482 8.32856 11.3376 8.67729C11.2047 8.68006 11.0718 8.67425 10.9398 8.65991L10.4877 8.57096C10.0583 8.44871 9.66752 8.22737 9.35044 7.92676C9.08997 7.68042 8.88539 7.38615 8.7493 7.06203C8.61321 6.73792 8.54848 6.39083 8.55909 6.0421ZM10.0759 9.55499L10.2239 9.58417C10.3997 9.63143 10.578 9.66664 10.7588 9.6898L11.4695 9.82879C11.9843 9.92993 12.5155 9.92993 13.0302 9.82879L14.4239 9.55499C14.7794 9.48511 15.1462 9.48519 15.5017 9.55521C15.8571 9.62524 16.1937 9.76373 16.4904 9.96209C16.7871 10.1605 17.0378 10.4145 17.2268 10.7084C17.4158 11.0024 17.5392 11.33 17.5893 11.6711C17.7951 13.0732 17.4909 14.5 16.7269 15.7163L16.4844 16.1033L15.4637 17.407C15.3391 17.5662 15.1795 17.6976 14.9958 17.7923C14.8122 17.8869 14.6091 17.9425 14.4005 17.955C14.192 17.9676 13.983 17.9369 13.7883 17.865C13.5935 17.7932 13.4176 17.682 13.2728 17.5391C13.1404 17.4084 12.9816 17.3045 12.8058 17.2334C12.63 17.1624 12.4409 17.1258 12.2499 17.1258C12.0588 17.1258 11.8697 17.1624 11.694 17.2334C11.5182 17.3045 11.3594 17.4084 11.227 17.5391C11.0822 17.682 10.9063 17.7932 10.7115 17.865C10.5167 17.9369 10.3078 17.9676 10.0992 17.955C9.89069 17.9425 9.68753 17.8869 9.50392 17.7923C9.32031 17.6976 9.16066 17.5662 9.0361 17.407L8.0154 16.1033L7.77286 15.7163C7.00912 14.5 6.70518 13.0732 6.91116 11.6711C6.96129 11.3301 7.08465 11.0025 7.27364 10.7086C7.46262 10.4147 7.71319 10.1607 8.00985 9.96239C8.3065 9.76403 8.64292 9.62553 8.99829 9.55545C9.35366 9.48538 9.72042 9.48522 10.0759 9.55499Z" fill="#F2ECEA"/>
</svg>
