<svg width="24" height="24" viewBox="0 0 24 24" fill="none" xmlns="http://www.w3.org/2000/svg">
<rect width="24" height="24" rx="8" fill="#F2ECEA"/>
<path d="M11.595 6.14969C11.708 6.05352 11.8516 6.00071 12 6.00071C12.1484 6.00071 12.292 6.05352 12.405 6.14969L17.28 10.3047C17.42 10.4232 17.5 10.5967 17.5 10.7797V17.2502C17.5 17.3165 17.4737 17.3801 17.4268 17.427C17.3799 17.4738 17.3163 17.5002 17.25 17.5002H6.75C6.6837 17.5002 6.62011 17.4738 6.57322 17.427C6.52634 17.3801 6.5 17.3165 6.5 17.2502V10.7802C6.5 10.5972 6.58 10.4237 6.72 10.3052L11.595 6.14969ZM13.054 5.38819C12.76 5.13762 12.3863 5 12 5C11.6137 5 11.24 5.13762 10.946 5.38819L6.071 9.54319C5.89203 9.6957 5.74829 9.88525 5.64971 10.0987C5.55112 10.3122 5.50005 10.5445 5.5 10.7797V17.2502C5.5 17.5817 5.6317 17.8996 5.86612 18.1341C6.10054 18.3685 6.41848 18.5002 6.75 18.5002H17.25C17.5815 18.5002 17.8995 18.3685 18.1339 18.1341C18.3683 17.8996 18.5 17.5817 18.5 17.2502V10.7802C18.5 10.545 18.4489 10.3127 18.3503 10.0992C18.2517 9.88575 18.108 9.6962 17.929 9.54369L13.054 5.38819ZM12.5 15.0002C12.5 14.8676 12.4473 14.7404 12.3536 14.6466C12.2598 14.5529 12.1326 14.5002 12 14.5002C11.8674 14.5002 11.7402 14.5529 11.6464 14.6466C11.5527 14.7404 11.5 14.8676 11.5 15.0002V16.0002C11.5 16.1328 11.5527 16.26 11.6464 16.3537C11.7402 16.4475 11.8674 16.5002 12 16.5002C12.1326 16.5002 12.2598 16.4475 12.3536 16.3537C12.4473 16.26 12.5 16.1328 12.5 16.0002V15.0002Z" fill="#B07664"/>
</svg>
