<svg width="13" height="13" viewBox="0 0 13 13" fill="none" xmlns="http://www.w3.org/2000/svg">
<path d="M6.5 0C7.28244 0 8.03239 0.138422 8.7271 0.391222L7.95051 1.16717C6.77523 0.847586 5.52729 0.925297 4.40073 1.38822C3.27418 1.85114 2.33215 2.67332 1.72114 3.72692C1.11012 4.78052 0.86436 6.00649 1.02207 7.21419C1.17977 8.4219 1.73211 9.54365 2.59319 10.405C3.45427 11.2664 4.57584 11.8191 5.78349 11.9772C6.99113 12.1353 8.21719 11.89 9.27099 11.2793C10.3248 10.6686 11.1473 9.72689 11.6106 8.60049C12.0739 7.47409 12.152 6.22618 11.8328 5.05079L12.6088 4.27484C12.8681 4.98803 13.0005 5.74113 13 6.5C13 10.0899 10.0899 13 6.5 13C2.91012 13 0 10.0899 0 6.5C0 2.91012 2.91012 0 6.5 0ZM6.5 2.60078C6.82928 2.60056 7.15725 2.64205 7.4761 2.72425V3.7426C6.85076 3.52136 6.16879 3.51929 5.54212 3.73673C4.91544 3.95416 4.38131 4.37818 4.02738 4.93919C3.67345 5.5002 3.52077 6.16487 3.59438 6.82409C3.66799 7.48332 3.96352 8.09794 4.43248 8.56706C4.90143 9.03619 5.51594 9.33195 6.17514 9.4058C6.83434 9.47965 7.49906 9.3272 8.0602 8.97348C8.62134 8.61976 9.04555 8.08578 9.26322 7.45918C9.48088 6.83259 9.47906 6.15062 9.25805 5.52519H10.2764C10.4797 6.31258 10.4317 7.14383 10.1392 7.90261C9.84668 8.66139 9.32424 9.30972 8.64499 9.75686C7.96575 10.204 7.1637 10.4276 6.35109 10.3963C5.53848 10.3651 4.75597 10.0805 4.11309 9.58251C3.47021 9.08449 2.99913 8.39794 2.76577 7.61893C2.5324 6.83992 2.54844 6.00744 2.81164 5.238C3.07484 4.46856 3.57203 3.80067 4.23362 3.32779C4.8952 2.85491 5.68809 2.60072 6.5013 2.60078M7.80104 6.5C7.80095 6.77935 7.71086 7.05124 7.54412 7.27538C7.37737 7.49951 7.14286 7.66396 6.87532 7.74434C6.60778 7.82473 6.32146 7.81678 6.0588 7.72168C5.79613 7.62657 5.5711 7.44937 5.41705 7.21633C5.263 6.98329 5.18813 6.70682 5.20354 6.42789C5.21895 6.14896 5.32381 5.88242 5.50259 5.66777C5.68137 5.45312 5.92456 5.30178 6.1961 5.23618C6.46764 5.17059 6.75309 5.19422 7.01015 5.30359L8.12792 4.18581L8.12597 2.11338C8.12609 1.98415 8.17751 1.86026 8.26895 1.76895L9.89362 0.144271C9.96178 0.0761931 10.0486 0.0298414 10.1431 0.0110703C10.2376 -0.00770079 10.3355 0.00195067 10.4245 0.0388057C10.5135 0.0756607 10.5896 0.138066 10.6432 0.21814C10.6967 0.298214 10.7254 0.392365 10.7255 0.488702V2.27584H12.5126C12.6089 2.27593 12.7031 2.30456 12.7832 2.35812C12.8632 2.41169 12.9256 2.48778 12.9625 2.57678C12.9993 2.66579 13.009 2.76373 12.9902 2.85822C12.9715 2.95271 12.9251 3.03952 12.857 3.10768L11.2324 4.73235C11.141 4.82378 11.0171 4.87521 10.8879 4.87532H8.81484L7.69706 5.9931C7.76335 6.14907 7.79974 6.31999 7.79974 6.5M10.6858 3.90052L11.3357 3.25065H10.2374C10.1081 3.25065 9.98416 3.1993 9.89276 3.10789C9.80135 3.01649 9.75 2.89251 9.75 2.76325V1.66497L9.10078 2.31484V3.86218L9.13912 3.90117L10.6858 3.90052Z" fill="#362D2E"/>
</svg>
