<svg width="15" height="12" viewBox="0 0 15 12" fill="none" xmlns="http://www.w3.org/2000/svg">
<path d="M2.62487 2.82353C2.62487 2.3555 2.8224 1.90664 3.17402 1.57569C3.52563 1.24475 4.00252 1.05882 4.49977 1.05882C4.99703 1.05882 5.47392 1.24475 5.82553 1.57569C6.17715 1.90664 6.37468 2.3555 6.37468 2.82353C6.37468 3.29156 6.17715 3.74042 5.82553 4.07136C5.47392 4.40231 4.99703 4.58824 4.49977 4.58824C4.00252 4.58824 3.52563 4.40231 3.17402 4.07136C2.8224 3.74042 2.62487 3.29156 2.62487 2.82353ZM4.49977 0C3.70417 0 2.94114 0.297478 2.37856 0.826993C1.81598 1.35651 1.49993 2.07468 1.49993 2.82353C1.49993 3.57238 1.81598 4.29055 2.37856 4.82007C2.94114 5.34958 3.70417 5.64706 4.49977 5.64706C5.29538 5.64706 6.05841 5.34958 6.62099 4.82007C7.18357 4.29055 7.49963 3.57238 7.49963 2.82353C7.49963 2.07468 7.18357 1.35651 6.62099 0.826993C6.05841 0.297478 5.29538 0 4.49977 0ZM10.1245 3.52941C10.1245 3.24859 10.243 2.97928 10.454 2.78071C10.665 2.58214 10.9511 2.47059 11.2494 2.47059C11.5478 2.47059 11.8339 2.58214 12.0449 2.78071C12.2559 2.97928 12.3744 3.24859 12.3744 3.52941C12.3744 3.81023 12.2559 4.07955 12.0449 4.27811C11.8339 4.47668 11.5478 4.58824 11.2494 4.58824C10.9511 4.58824 10.665 4.47668 10.454 4.27811C10.243 4.07955 10.1245 3.81023 10.1245 3.52941ZM11.2494 1.41176C10.6527 1.41176 10.0805 1.63487 9.65853 2.03201C9.23659 2.42915 8.99955 2.96778 8.99955 3.52941C8.99955 4.09105 9.23659 4.62968 9.65853 5.02681C10.0805 5.42395 10.6527 5.64706 11.2494 5.64706C11.8461 5.64706 12.4184 5.42395 12.8403 5.02681C13.2623 4.62968 13.4993 4.09105 13.4993 3.52941C13.4993 2.96778 13.2623 2.42915 12.8403 2.03201C12.4184 1.63487 11.8461 1.41176 11.2494 1.41176ZM9.18554 10.6151C9.71276 10.8162 10.3885 10.9412 11.2502 10.9412C12.9616 10.9412 13.9396 10.4492 14.4728 9.84141C14.7315 9.54635 14.8628 9.24847 14.9303 9.02047C14.9689 8.8884 14.9923 8.75279 15 8.616V8.59694C14.9998 8.18906 14.8276 7.79795 14.5211 7.50953C14.2147 7.22112 13.7992 7.05901 13.3658 7.05882H9.13454C9.11354 7.05882 9.09305 7.05929 9.07305 7.06024C9.36853 7.34965 9.58302 7.71318 9.68502 8.11765H13.3658C13.6448 8.11765 13.8713 8.32871 13.8751 8.58988L13.8728 8.61247C13.8698 8.63976 13.8606 8.68212 13.8451 8.73953C13.7987 8.89651 13.7169 9.04219 13.6051 9.16659C13.3426 9.46729 12.7261 9.88235 11.2502 9.88235C10.5152 9.88235 9.99325 9.77929 9.62277 9.63882C9.54177 9.92118 9.40828 10.2621 9.18554 10.6151ZM1.68742 7.05882C1.23989 7.05882 0.810684 7.22616 0.494233 7.52401C0.177781 7.82186 0 8.22583 0 8.64706V8.84329C0.00078562 8.89237 0.00429016 8.94138 0.0104994 8.99012C0.0728351 9.51527 0.273381 10.0175 0.59397 10.4513C1.20744 11.2758 2.37888 12 4.49977 12C6.62067 12 7.79211 11.2765 8.40558 10.4506C8.72617 10.0168 8.92671 9.51457 8.98905 8.98941C8.99434 8.94083 8.99784 8.8921 8.99955 8.84329V8.64706C8.99955 8.22583 8.82177 7.82186 8.50532 7.52401C8.18887 7.22616 7.75967 7.05882 7.31213 7.05882H1.68742ZM1.12494 8.82847V8.64706C1.12494 8.50665 1.1842 8.37199 1.28969 8.27271C1.39517 8.17342 1.53824 8.11765 1.68742 8.11765H7.31213C7.46131 8.11765 7.60438 8.17342 7.70986 8.27271C7.81535 8.37199 7.87461 8.50665 7.87461 8.64706V8.82847L7.86936 8.88494C7.8262 9.22936 7.69383 9.55853 7.48388 9.84353C7.11414 10.3412 6.31618 10.9412 4.49977 10.9412C2.68337 10.9412 1.88541 10.3412 1.51492 9.84353C1.30524 9.55846 1.17313 9.2293 1.13019 8.88494L1.12494 8.82847Z" fill="#B07664"/>
</svg>
