<svg width="24" height="32" viewBox="0 0 24 32" fill="none" xmlns="http://www.w3.org/2000/svg">
<path d="M3.33832 11.7168L3.33522 11.72L3.32903 11.7248L3.31354 11.7376C3.24633 11.7903 3.18124 11.8458 3.11842 11.904C2.95629 12.0524 2.80026 12.2077 2.65074 12.3696C2.27908 12.7744 1.80211 13.376 1.35456 14.1808C0.453282 15.8048 -0.303982 18.2256 0.121882 21.4624C0.541552 24.6576 1.84082 27.328 4.03673 29.1904C6.22645 31.0464 9.19046 32 12.7755 32C16.472 32 19.4236 30.568 21.3764 28.112C23.3121 25.6784 24.1762 22.3584 23.9703 18.7296C23.772 15.248 21.937 12.6064 20.3156 10.2736L19.8525 9.6064C18.0841 7.0272 16.6888 4.6512 17.0279 1.3264C17.0451 1.15906 17.028 0.989872 16.9777 0.829807C16.9275 0.669742 16.8452 0.522385 16.7363 0.397302C16.6273 0.272219 16.4941 0.172207 16.3454 0.10376C16.1966 0.0353132 16.0355 -3.86202e-05 15.8727 3.16606e-08C15.2811 3.16606e-08 14.6028 0.1888 13.9493 0.4736C13.1926 0.808815 12.4785 1.23869 11.8231 1.7536C10.3906 2.8704 8.95817 4.5536 8.19472 6.8032C7.43281 9.0464 7.81995 11.184 8.37745 12.7408C8.74447 13.7632 8.34648 14.7728 7.74717 15.0672C7.49217 15.1918 7.20041 15.2098 6.93288 15.1174C6.66535 15.025 6.44276 14.8293 6.31162 14.5712L5.06345 12.1216C4.98533 11.9679 4.87588 11.8336 4.74264 11.7279C4.60939 11.6221 4.45554 11.5475 4.29168 11.5092C4.12783 11.4709 3.95787 11.4697 3.79355 11.5058C3.62922 11.542 3.47443 11.6145 3.33987 11.7184" fill="#BBD911"/>
<path opacity="0.1" d="M7.80826 20.8584L7.80658 20.86L7.80322 20.8624L7.79483 20.8688C7.75843 20.8951 7.72317 20.9229 7.68914 20.952C7.60132 21.0262 7.51681 21.1039 7.43582 21.1848C7.2345 21.3872 6.97614 21.688 6.73372 22.0904C6.24553 22.9024 5.83534 24.1128 6.06602 25.7312C6.29334 27.3288 6.99711 28.664 8.18656 29.5952C9.37266 30.5232 10.9782 31 12.92 31C14.9223 31 16.5211 30.284 17.5789 29.056C18.6274 27.8392 19.0955 26.1792 18.9839 24.3648C18.8765 22.624 17.8825 21.3032 17.0043 20.1368L16.7535 19.8032C15.7955 18.5136 15.0397 17.3256 15.2235 15.6632C15.2327 15.5795 15.2235 15.4949 15.1963 15.4149C15.1691 15.3349 15.1245 15.2612 15.0655 15.1987C15.0065 15.1361 14.9343 15.0861 14.8537 15.0519C14.7731 15.0177 14.6859 15 14.5977 15C14.2773 15 13.9099 15.0944 13.5559 15.2368C13.146 15.4044 12.7592 15.6193 12.4042 15.8768C11.6283 16.4352 10.8523 17.2768 10.4388 18.4016C10.0261 19.5232 10.2358 20.592 10.5378 21.3704C10.7366 21.8816 10.521 22.3864 10.1964 22.5336C10.0583 22.5959 9.90022 22.6049 9.75531 22.5587C9.6104 22.5125 9.48983 22.4146 9.4188 22.2856L8.7427 21.0608C8.70039 20.984 8.6411 20.9168 8.56893 20.8639C8.49675 20.8111 8.41342 20.7738 8.32466 20.7546C8.23591 20.7354 8.14385 20.7349 8.05484 20.7529C7.96583 20.771 7.88198 20.8072 7.80909 20.8592" fill="black"/>
</svg>
